<svg width="52" height="52" viewBox="0 0 52 52" fill="none" xmlns="http://www.w3.org/2000/svg">
<g clip-path="url(#clip0_208_126)">
<rect width="50.3924" height="50.3924" transform="translate(0.828979 0.63208)" fill="black"/>
<path d="M25.145 0.5C38.4851 0.5 49.29 11.5782 49.29 25.2557C49.2887 30.4427 47.701 35.4986 44.7502 39.7119C41.7995 43.9252 37.6344 47.0836 32.8412 48.7427C31.634 48.9903 31.1812 48.2167 31.1812 47.5668C31.1812 46.7313 31.2114 44.0701 31.2114 40.759C31.2114 38.4381 30.4569 36.9528 29.5816 36.1792C34.9539 35.5603 40.5978 33.4561 40.5978 23.956C40.5978 21.2329 39.6622 19.0358 38.1229 17.3029C38.3644 16.6841 39.2095 14.1466 37.8815 10.7427C37.8815 10.7427 35.8593 10.0619 31.2416 13.2801C29.31 12.7231 27.2577 12.4446 25.2054 12.4446C23.153 12.4446 21.1007 12.7231 19.1691 13.2801C14.5514 10.0928 12.5292 10.7427 12.5292 10.7427C11.2013 14.1466 12.0463 16.6841 12.2878 17.3029C10.7485 19.0358 9.81293 21.2639 9.81293 23.956C9.81293 33.4251 15.4266 35.5603 20.7989 36.1792C20.1047 36.7981 19.4709 37.8811 19.2597 39.4903C17.8713 40.1401 14.4005 41.1922 12.2274 37.4479C11.7747 36.7052 10.4166 34.8795 8.51513 34.9104C6.49299 34.9414 7.70024 36.0863 8.54532 36.5505C9.57148 37.1385 10.7485 39.3355 11.0202 40.0473C11.5031 41.4398 13.0725 44.101 19.1389 42.9561C19.1389 45.0294 19.1691 46.9789 19.1691 47.5668C19.1691 48.2167 18.7164 48.9593 17.5091 48.7427C12.7002 47.1015 8.51735 43.9494 5.55402 39.7336C2.59069 35.5178 0.997343 30.4523 1 25.2557C1 11.5782 11.8049 0.5 25.145 0.5Z" fill="white"/>
</g>
<defs>
<clipPath id="clip0_208_126">
<rect width="50.3924" height="50.3924" fill="white" transform="translate(0.828979 0.63208)"/>
</clipPath>
</defs>
</svg>
