<svg width="18" height="18" viewBox="0 0 18 18" fill="none" xmlns="http://www.w3.org/2000/svg">
<g clip-path="url(#clip0_112_38)">
<path d="M17.7042 9.36479C17.7042 4.62007 13.8815 0.773926 9.16671 0.773926C4.44974 0.774993 0.627075 4.62007 0.627075 9.36585C0.627075 13.6527 3.74967 17.2065 7.83059 17.8511V11.8481H5.6642V9.36585H7.83273V7.47159C7.83273 5.31908 9.10802 4.13023 11.0578 4.13023C11.9926 4.13023 12.9691 4.29778 12.9691 4.29778V6.41081H11.8923C10.8326 6.41081 10.5018 7.07353 10.5018 7.75333V9.36479H12.8688L12.491 11.8471H10.5007V17.85C14.5816 17.2054 17.7042 13.6517 17.7042 9.36479Z" fill="#059BE5"/>
</g>
<defs>
<clipPath id="clip0_112_38">
<rect x="0.629181" y="0.774994" width="17.075" height="17.075" rx="8.5375" fill="white"/>
</clipPath>
</defs>
</svg>
