<svg width="19" height="18" viewBox="0 0 19 18" fill="none" xmlns="http://www.w3.org/2000/svg">
<g clip-path="url(#clip0_112_31)">
<path fill-rule="evenodd" clip-rule="evenodd" d="M9.49999 0.774994C4.78303 0.774994 0.962494 4.59553 0.962494 9.31249C0.962494 13.0903 3.40635 16.2812 6.80001 17.4124C7.22688 17.4872 7.38696 17.231 7.38696 17.0069C7.38696 16.8041 7.37629 16.1318 7.37629 15.4168C5.23124 15.8117 4.67631 14.8939 4.50556 14.4137C4.40951 14.1682 3.99331 13.4105 3.63046 13.2077C3.33165 13.0477 2.90478 12.6528 3.61979 12.6421C4.29212 12.6314 4.77235 13.2611 4.93243 13.5172C5.70081 14.8085 6.92807 14.4457 7.41898 14.2216C7.49368 13.6666 7.71779 13.2931 7.96324 13.0797C6.06365 12.8662 4.07868 12.1299 4.07868 8.86427C4.07868 7.93582 4.40951 7.16745 4.95378 6.56982C4.8684 6.35638 4.56959 5.48129 5.03915 4.30738C5.03915 4.30738 5.75417 4.08328 7.38696 5.18248C8.06996 4.99038 8.79565 4.89434 9.52134 4.89434C10.247 4.89434 10.9727 4.99038 11.6557 5.18248C13.2885 4.0726 14.0035 4.30738 14.0035 4.30738C14.4731 5.48129 14.1743 6.35638 14.0889 6.56982C14.6332 7.16745 14.964 7.92515 14.964 8.86427C14.964 12.1405 12.9684 12.8662 11.0688 13.0797C11.3782 13.3465 11.645 13.8587 11.645 14.6591C11.645 15.801 11.6344 16.7188 11.6344 17.0069C11.6344 17.231 11.7944 17.4978 12.2213 17.4124C13.9161 16.8402 15.3889 15.751 16.4322 14.2979C17.4755 12.8449 18.037 11.1013 18.0375 9.31249C18.0375 4.59553 14.217 0.774994 9.49999 0.774994Z" fill="black"/>
</g>
<defs>
<clipPath id="clip0_112_31">
<rect x="0.962494" y="0.774994" width="17.075" height="17.075" rx="8.5375" fill="white"/>
</clipPath>
</defs>
</svg>
