<svg width="87" height="88" viewBox="0 0 87 88" fill="none" xmlns="http://www.w3.org/2000/svg">
<g clip-path="url(#clip0_2409_2)">
<path d="M43.5 80.6667C53.175 80.6667 61.2733 77.385 67.2217 71.7933L55.5758 62.535C52.3687 64.7167 48.2837 66 43.5 66C34.2012 66 26.3179 59.565 23.5229 50.9117H11.5187V60.445C17.3954 72.435 29.4892 80.6667 43.5 80.6667Z" fill="#4285F4"/>
<path d="M23.5229 50.9117C22.8062 48.73 22.4121 46.4017 22.4121 44C22.4121 41.5983 22.8062 39.27 23.5229 37.0883V27.555H11.5187C9.06416 32.505 7.66666 38.0783 7.66666 44C7.66666 49.9217 9.06416 55.495 11.5008 60.445L23.5229 50.9117Z" fill="#FABB05"/>
<path d="M43.5 22C48.7496 22 53.4437 23.8517 57.1525 27.4633L67.4725 16.9033C61.2733 10.9633 53.1571 7.33334 43.5 7.33334C29.4892 7.33334 17.3954 15.565 11.5008 27.555L23.505 37.0883C26.3179 28.435 34.2012 22 43.5 22Z" fill="#4285F4"/>
<path d="M43.5 7.33333C33.825 7.33333 25.7267 10.615 19.7783 16.2067L31.4242 25.465C34.6313 23.2833 38.7163 22 43.5 22C52.7988 22 60.6821 28.435 63.4771 37.0883H75.4813V27.555C69.6046 15.565 57.5108 7.33333 43.5 7.33333Z" fill="#34A853"/>
<path d="M63.4771 37.0883C64.1938 39.27 64.5879 41.5983 64.5879 44C64.5879 46.4017 64.1938 48.73 63.4771 50.9117V60.445H75.4813C77.9358 55.495 79.3333 49.9217 79.3333 44C79.3333 38.0783 77.9358 32.505 75.4992 27.555L63.4771 37.0883Z" fill="#FABB05"/>
<path d="M43.5 66C38.2504 66 33.5563 64.1483 29.8475 60.5367L19.5275 71.0967C25.7267 77.0367 33.8429 80.6667 43.5 80.6667C57.5108 80.6667 69.6046 72.435 75.4992 60.445L63.495 50.9117C60.6821 59.565 52.7988 66 43.5 66Z" fill="#E94235"/>
</g>
<defs>
<clipPath id="clip0_2409_2">
<rect width="86" height="88" fill="white" transform="translate(0.5)"/>
</clipPath>
</defs>
</svg>
