<svg width="68" height="62" viewBox="0 0 68 62" fill="none" xmlns="http://www.w3.org/2000/svg">
<g clip-path="url(#clip0_208_133)">
<path d="M34 62.3333C41.65 62.3333 48.0533 59.7975 52.7567 55.4767L43.5483 48.3225C41.0125 50.0083 37.7825 51 34 51C26.6475 51 20.4142 46.0275 18.2042 39.3408H8.71249V46.7075C13.3592 55.9725 22.9217 62.3333 34 62.3333Z" fill="#4285F4"/>
<path d="M18.2042 39.3408C17.6375 37.655 17.3258 35.8558 17.3258 34C17.3258 32.1442 17.6375 30.345 18.2042 28.6592V21.2925H8.71251C6.77167 25.1175 5.66667 29.4242 5.66667 34C5.66667 38.5758 6.77167 42.8825 8.69834 46.7075L18.2042 39.3408Z" fill="#FABB05"/>
<path d="M34 17C38.1508 17 41.8625 18.4308 44.795 21.2217L52.955 13.0617C48.0533 8.47166 41.6358 5.66666 34 5.66666C22.9217 5.66666 13.3592 12.0275 8.69833 21.2925L18.19 28.6592C20.4142 21.9725 26.6475 17 34 17Z" fill="#4285F4"/>
<path d="M34 5.66666C26.35 5.66666 19.9467 8.2025 15.2433 12.5233L24.4517 19.6775C26.9875 17.9917 30.2175 17 34 17C41.3525 17 47.5858 21.9725 49.7958 28.6592H59.2875V21.2925C54.6408 12.0275 45.0783 5.66666 34 5.66666Z" fill="#34A853"/>
<path d="M49.7958 28.6592C50.3625 30.345 50.6742 32.1442 50.6742 34C50.6742 35.8558 50.3625 37.655 49.7958 39.3408V46.7075H59.2875C61.2283 42.8825 62.3333 38.5758 62.3333 34C62.3333 29.4242 61.2283 25.1175 59.3017 21.2925L49.7958 28.6592Z" fill="#FABB05"/>
<path d="M34 51C29.8492 51 26.1375 49.5692 23.205 46.7783L15.045 54.9383C19.9467 59.5283 26.3642 62.3333 34 62.3333C45.0783 62.3333 54.6408 55.9725 59.3017 46.7075L49.81 39.3408C47.5858 46.0275 41.3525 51 34 51Z" fill="#E94235"/>
</g>
<defs>
<clipPath id="clip0_208_133">
<rect width="68" height="62" fill="white"/>
</clipPath>
</defs>
</svg>
