<svg width="18" height="18" viewBox="0 0 18 18" fill="none" xmlns="http://www.w3.org/2000/svg">
<g clip-path="url(#clip0_112_25)">
<path d="M17.2045 7.64031H16.5168V7.60488H8.83319V11.0198H13.6581C12.9542 13.0077 11.0627 14.4348 8.83319 14.4348C6.00434 14.4348 3.71078 12.1412 3.71078 9.31235C3.71078 6.48349 6.00434 4.18993 8.83319 4.18993C10.139 4.18993 11.327 4.68254 12.2315 5.48719L14.6463 3.0724C13.1215 1.65135 11.0819 0.774994 8.83319 0.774994C4.11844 0.774994 0.295837 4.59759 0.295837 9.31235C0.295837 14.0271 4.11844 17.8497 8.83319 17.8497C13.5479 17.8497 17.3705 14.0271 17.3705 9.31235C17.3705 8.73992 17.3116 8.18115 17.2045 7.64031Z" fill="#FFC107"/>
<path d="M1.27966 5.33864L4.08461 7.39571C4.84358 5.51664 6.68167 4.18993 8.83266 4.18993C10.1384 4.18993 11.3264 4.68254 12.231 5.48719L14.6457 3.0724C13.121 1.65135 11.0814 0.774994 8.83266 0.774994C5.55346 0.774994 2.70967 2.62632 1.27966 5.33864Z" fill="#FF3D00"/>
<path d="M8.8333 17.85C11.0385 17.85 13.0422 17.0061 14.5572 15.6337L11.9149 13.3978C11.0289 14.0715 9.94634 14.4359 8.8333 14.435C6.61274 14.435 4.72726 13.0191 4.01696 11.0432L1.23293 13.1882C2.64586 15.953 5.51526 17.85 8.8333 17.85Z" fill="#4CAF50"/>
<path d="M17.2045 7.64032H16.5168V7.60489H8.83321V11.0198H13.6581C13.3214 11.9659 12.7149 12.7927 11.9135 13.3979L11.9148 13.3971L14.5571 15.633C14.3701 15.8029 17.3706 13.581 17.3706 9.31236C17.3706 8.73993 17.3117 8.18116 17.2045 7.64032Z" fill="#1976D2"/>
</g>
<defs>
<clipPath id="clip0_112_25">
<rect x="0.295837" y="0.774994" width="17.075" height="17.075" rx="8.5375" fill="white"/>
</clipPath>
</defs>
</svg>
